# xmcd CD database file
# Copyright (C) 1993-1998 Ti Kan
# 
# Track frame offsets:
# 150
# 20897
# 43280
# 60205
# 87525
# 117172
# 138552
# 150727
# 170807
# 197457
# 
# Disc length: 2731 seconds
# 
# Revision: 0
# Processed by: cddbd v1.4b41PL1 Copyright (c) Steve Scherf et al.
# Submitted via: SuperSonic v3.01
# 
DISCID=8b0aa90a
DTITLE=Cameo - Word Up
DYEAR=1900
DGENRE=
TTITLE0=Shake Your Pants
TTITLE1=Skin I'm In
TTITLE2=Nasty
TTITLE3=Why Have I Lost You
TTITLE4=Word Up
TTITLE5=Candy
TTITLE6=She's Strange
TTITLE7=Sparkle
TTITLE8=Back and Forth
TTITLE9=I Just Want To Be
EXTD=
EXTT0=
EXTT1=
EXTT2=
EXTT3=
EXTT4=
EXTT5=
EXTT6=
EXTT7=
EXTT8=
EXTT9=
PLAYORDER=
